<svg xmlns="http://www.w3.org/2000/svg" viewBox="0 0 64 64" width="64" height="64" role="img" aria-label="James Threadgold">
  <defs>
    <linearGradient id="jt-bg" x1="0" y1="0" x2="1" y2="1">
      <stop offset="0" stop-color="#FBF7F0"/>
      <stop offset="0.62" stop-color="#FCEEDF"/>
      <stop offset="1" stop-color="#FF5B2E"/>
    </linearGradient>
  </defs>
  <rect x="0" y="0" width="64" height="64" rx="14" fill="url(#jt-bg)"/>
  <g transform="translate(10 17) scale(0.04106)" fill="#1A1714">
    <path d="M362.52 595.49 Q362.52 656.55 310.58 693.50 Q258.64 730.45 170.66 730.45 Q89.10 730.45 44.55 697.99 Q0.00 665.52 0.00 613.00 Q0.00 580.06 17.92 559.71 Q35.84 539.35 68.02 539.35 Q93.86 539.35 110.73 558.36 Q127.61 577.36 127.61 610.70 L127.61 648.44 Q127.61 673.80 139.47 688.49 Q151.34 703.17 178.91 703.17 Q207.47 703.17 225.59 685.26 Q243.70 667.34 243.70 633.62 Q243.70 608.48 232.25 585.64 Q220.80 562.80 205.59 537.33 Q190.39 511.86 178.94 479.33 Q167.48 446.80 167.48 402.30 L167.48 77.20 Q167.48 66.76 162.74 60.59 Q158.00 54.42 147.24 52.62 L108.66 46.52 Q99.94 44.82 96.13 41.04 Q92.33 37.27 92.33 30.59 Q92.33 23.73 97.24 19.98 Q102.15 16.23 111.41 16.23 L365.93 16.23 Q375.91 16.23 380.60 19.91 Q385.30 23.59 385.30 30.30 Q385.30 41.38 368.56 46.23 L336.68 52.48 Q326.21 55.20 320.76 60.50 Q315.31 65.80 315.31 74.95 L315.31 396.28 Q315.31 430.95 322.46 456.62 Q329.60 482.30 338.91 503.76 Q348.23 525.23 355.38 547.00 Q362.52 568.78 362.52 595.49 Z M565.16 16.23 L955.54 16.23 Q970.48 16.23 981.10 12.10 Q991.72 7.98 999.89 3.99 Q1008.05 0.00 1014.94 0.00 Q1024.57 0.00 1029.75 5.07 Q1034.94 10.14 1038.21 23.89 L1070.68 199.09 Q1072.75 208.51 1069.80 214.28 Q1066.84 220.05 1059.48 221.51 Q1052.59 222.98 1047.12 220.19 Q1041.65 217.40 1037.79 209.45 Q1008.87 141.84 986.38 107.47 Q963.89 73.11 942.60 61.08 Q921.32 49.05 896.01 49.05 L835.33 49.05 L835.33 658.30 Q835.33 667.12 841.09 672.33 Q846.84 677.53 857.77 680.20 L891.66 686.51 Q905.88 690.55 905.88 702.15 Q905.88 716.23 887.21 716.23 L635.35 716.23 Q625.80 716.23 621.24 712.30 Q616.69 708.37 616.69 702.15 Q616.69 690.55 630.90 686.51 L664.79 680.20 Q676.02 677.53 681.63 672.33 Q687.23 667.12 687.23 658.30 L687.23 49.05 L626.55 49.05 Q601.74 49.05 580.54 61.83 Q559.34 74.60 536.71 109.08 Q514.08 143.56 484.77 209.45 Q481.12 217.40 475.54 220.19 Q469.97 222.98 463.08 221.51 Q455.87 220.05 453.04 214.28 Q450.21 208.51 451.88 199.09 L484.35 23.89 Q487.63 10.14 492.86 5.07 Q498.09 0.00 507.62 0.00 Q514.52 0.00 522.15 3.99 Q529.77 7.98 540.14 12.10 Q550.51 16.23 565.16 16.23 Z"/>
  </g>
</svg>
